<svg xmlns="http://www.w3.org/2000/svg" viewBox="0 0 48 48" width="144" height="144"><path fill="#FFF" d="M34 29c-.6-5.8-7.6-9.8-16-8.9-4.9.5-9.4 2.6-11.9 5.6C4.5 27.6 3.8 29.8 4 32c.5 5.3 6.4 9 13.8 9 .7 0 1.4 0 2.2-.1 4.9-.5 9.4-2.6 11.9-5.6 1.6-1.9 2.3-4.1 2.1-6.3z"/><path fill="#D32F2F" d="M19.8 38.9c-7.1.7-13.3-2.5-13.8-7.1s5-9 12.1-9.7c7.2-.7 13.3 2.5 13.8 7.1.5 4.7-4.9 9-12.1 9.7m14.9-15c-.6-.2-1-.3-.7-1.1.7-1.7.8-3.2 0-4.3-1.4-2-5.3-1.9-9.7-.1 0 0-1.4.6-1-.5.7-2.2.6-4-.5-5-2.4-2.4-8.8.1-14.3 5.5C4.4 22.5 2 26.8 2 30.5 2 37.7 11.2 42 20.3 42 32.1 42 40 35.2 40 29.8c0-3.3-2.8-5.1-5.3-5.9"/><path fill="#263238" d="M20.9 30.4c-.3.5-.9.8-1.4.6-.5-.2-.6-.8-.4-1.3.3-.5.9-.8 1.3-.5.6.1.7.6.5 1.2m-3.3 2.4c-.7 1-2.3 1.5-3.5 1-1.2-.5-1.5-1.7-.8-2.6.7-1 2.2-1.4 3.4-1 1.3.4 1.7 1.6.9 2.6m2.9-7.6c-3.5-.9-7.4.8-8.9 3.8-1.5 3.1-.1 6.5 3.5 7.6 3.6 1.2 7.9-.6 9.4-3.9 1.5-3.2-.4-6.6-4-7.5"/><path fill="#F9A825" d="M43.9 20a1.5 1.5 0 1 0 0 3 1.5 1.5 0 1 0 0-3z"/><path fill="#F9A825" d="M45.3 22c-.2.6-.8 1-1.4 1-.8 0-1.5-.7-1.5-1.5 0-.2 0-.4.1-.6.3-.9.5-1.9.5-2.9 0-5-4-9-9-9-.4 0-.9 0-1.3.1h-.2c-.8 0-1.5-.7-1.5-1.5s.7-1.5 1.5-1.5C33 6 33.5 6 34 6c6.6 0 12 5.4 12 12 0 1.4-.2 2.7-.7 4zM40 18c0-3.3-2.7-6-6-6h-.8c-.7.1-1.3.7-1.3 1.5s.7 1.5 1.5 1.5h.5c1.7 0 3 1.3 3 3 0 .3-.1.7-.2 1-.1.2-.1.3-.1.5 0 .8.7 1.5 1.5 1.5.6 0 1.1-.4 1.4-.9V20c0-.1 0-.1.1-.2.3-.6.4-1.2.4-1.8z"/></svg>