<svg xmlns="http://www.w3.org/2000/svg" viewBox="0 0 48 48" width="144" height="144"><path fill="#03A9F4" d="M42 12.429a14.978 14.978 0 0 1-4.247 1.162 7.38 7.38 0 0 0 3.251-4.058 14.829 14.829 0 0 1-4.693 1.776A7.377 7.377 0 0 0 30.926 9c-4.08 0-7.387 3.278-7.387 7.32 0 .572.067 1.129.193 1.67a21.05 21.05 0 0 1-15.224-7.654 7.23 7.23 0 0 0-1 3.686c0 2.541 1.301 4.778 3.285 6.096a7.52 7.52 0 0 1-3.349-.914v.086c0 3.551 2.547 6.508 5.923 7.181a7.346 7.346 0 0 1-1.941.263c-.477 0-.942-.054-1.392-.135.94 2.902 3.667 5.023 6.898 5.086a14.925 14.925 0 0 1-9.174 3.134 14.61 14.61 0 0 1-1.761-.104A21.109 21.109 0 0 0 17.321 38c13.585 0 21.017-11.156 21.017-20.834 0-.317-.01-.633-.025-.945A14.532 14.532 0 0 0 42 12.429"/></svg>